<svg xmlns="http://www.w3.org/2000/svg" viewBox="0 0 410 404"><path fill="#41D1FF" d="M399.641 59.525 215.7 388.52c-3.732 6.512-13.182 6.46-16.841-.094L9.872 59.56c-4.002-6.958 1.844-15.429 9.63-14.346l187.61 26.525a9.818 9.818 0 0 0 1.401-.006l181.994-26.41c7.756-1.125 13.649 7.24 9.693 14.21Z"/><path fill="#BD34FE" d="M292.965.006 156.789 27.162a4.909 4.909 0 0 0-3.905 3.253L93.148 199.27a4.91 4.91 0 0 0 5.632 6.271l55.878-11.51c3.137-.647 6.093 1.45 6.444 4.638l13.39 124.388c.352 3.294 4.795 4.5 6.8 1.88l11.808-15.383a4.906 4.906 0 0 1 8.426 1.143l37.442 110.043c1.046 3.075 5.423 3.183 6.6.142l1.727-4.485L334.6 6.107c1.215-3.487-1.87-6.981-5.635-6.1Z"/><path fill="#FFEA83" d="m292.965.006-48.83 136.547a2.955 2.955 0 0 0 3.403 3.823l55.64-9.584c3.218-.554 5.865 2.505 4.936 5.601L257.72 313.245c-.957 3.211 2.467 5.925 5.434 4.222l34.017-19.619a2.954 2.954 0 0 1 4.31 3.234l-23.239 109.86c-.703 3.326 3.612 5.256 5.502 2.437l2.385-3.624L404.73 65.79c1.259-3.52-1.924-7.047-5.69-6.17L251.458 57.6c-3.287.75-6.075-2.614-4.872-5.772L299.428 6.1c1.215-3.487-1.87-6.981-5.636-6.1Z"/></svg>
