<svg xmlns="http://www.w3.org/2000/svg" viewBox="0 0 841.9 595.3"><g fill="#61dafb"><path d="M666.3 296.5c0 32.5-40.7 63.3-103.1 82.4-14.5 4.5-29.5 8.3-45 11.2-18.1 3.5-36.7 5.8-55.8 6.9-19.8 1.1-39.2 1.1-58.2-.1-18.5-1.1-36.7-3.3-54.6-6.4-15.7-2.9-31-6.7-45.7-11.1-62.2-19.0-103-49.7-103-82.1 0-32.5 40.7-63.3 103.1-82.4 14.5-4.5 29.5-8.3 45-11.2 18.1-3.5 36.7-5.8 55.8-6.9 19.8-1.1 39.2-1.1 58.2.1 18.5 1.1 36.7 3.3 54.6 6.4 15.7 2.9 31 6.7 45.7 11.1 62.2 19.1 103 49.8 103 82.2zm66.7 0c0-44.2-49.6-83.2-129.4-106.9 13.7-52.4 8.3-95-15.6-109.9-24-14.9-62.1.2-102.3 35.3-32.6-9.1-66.7-14.6-102-15.5-35.4-.9-69.7 3.4-102.8 12.6-40.2-35-78.3-49.9-102.3-35-24 14.9-29.4 57.5-15.6 109.9-79.6 23.7-129.2 62.6-129.2 106.8 0 44.2 49.6 83.2 129.4 106.9-13.7 52.4-8.3 95 15.6 109.9 24 14.9 62.1-.2 102.3-35.3 32.6 9.1 66.7 14.6 102 15.5 35.4.9 69.7-3.4 102.8-12.6 40.2 35 78.3 49.9 102.3 35 24-14.9 29.4-57.5 15.6-109.9 79.7-23.7 129.3-62.6 129.3-106.8zm-196.7-27.3c-3.7 9.7-8.3 19.4-13.5 29-4.9 9.1-10.3 18.2-16.1 27.1-5.5 8.3-11.4 16.5-17.6 24.6-6.9 8.9-14.1 17.7-21.6 26.3-17.3 19.9-35.3 38-53.6 54-18.2-16-36.2-34-53.5-53.9-7.5-8.5-14.7-17.2-21.6-26.1-6.3-8.1-12.2-16.3-17.7-24.6-5.8-8.9-11.1-18-16.1-27.1-5.2-9.6-9.8-19.3-13.5-29-12.4-32.9-13.1-62.3-.3-75.8 12.8-13.5 42.1-11 75.7 7.6 9.2 5.1 18.6 11.1 28.1 17.9 8.4 6 16.8 12.6 25.1 19.8 8.3-7.2 16.7-13.8 25-19.8 9.5-6.8 18.9-12.8 28.1-17.9 33.6-18.6 62.9-21.1 75.7-7.6 12.8 13.5 12.1 42.9-.3 75.8zM421 338c27.6 0 50-22.4 50-50s-22.4-50-50-50-50 22.4-50 50 22.4 50 50 50z"/><circle cx="421" cy="288" r="45"/></g></svg>
